<?xml version="1.0" encoding="UTF-8"?>
<!-- Generator: Adobe Illustrator 21.0.0, SVG Export Plug-In . SVG Version: 6.00 Build 0)  -->
<svg version="1.1" id="レイヤー_1" xmlns="http://www.w3.org/2000/svg" xmlns:xlink="http://www.w3.org/1999/xlink" x="0px" y="0px" viewBox="0 0 226.8 30.3" style="enable-background:new 0 0 226.8 30.3;" xml:space="preserve">
<style type="text/css">
	.st0{fill:#009DDD;}
</style>
<g>
	<g>
		<g>
			<path class="st0" d="M219.7,0.1c2.6,0,7.1,1.9,7.1,8.8c0,3.1,0,8.4,0,12.7c0,7.5-5.5,8.7-7.1,8.7c-1.5,0-12.2,0-14.7,0     c-2.6,0-7.1-1.8-7.1-8.7c0-1.6,0-11.2,0-13c0-4.4,2.5-8.4,7.2-8.5C206.2,0.1,218.1,0.1,219.7,0.1z M209.5,5.3     c-2,0-3.4,1.8-3.4,3.3s0,12,0,13c0,2.2,1.8,3.4,3.3,3.4c1.1,0,3.9,0,5.6,0c1.6,0,3.3-1.4,3.3-3.3s0-11.4,0-13.1     c0-1.6-1.5-3.3-3.3-3.3C213.3,5.3,210.3,5.3,209.5,5.3z"/>
			<path class="st0" d="M128.9,8.8c0-5.1,2.8-8.8,7.2-8.8c2.1,0,13.7,0,15.7,0c4.2,0,6.9,3.7,6.9,8.6c0,3,0,21.5,0,21.5h-8.3v-6.7     h-13.2v6.7h-8.3C128.9,30.2,128.9,12.2,128.9,8.8z M137.2,17.6h13.2c0,0,0-7.4,0-8.8c0-1.6-1.2-3.5-3.2-3.5s-5.2,0-6.7,0     c-1.6,0-3.3,1.5-3.3,3.3C137.2,10.5,137.2,17.6,137.2,17.6z"/>
			<path class="st0" d="M164.3,30.2h8.3V5.3c0,0,6.6,0,8.2,0c1.9,0,3.3,1.6,3.4,3.3c0,1.7,0,21.5,0,21.5h8.2c0,0,0-17.8,0-21.3     c0-4.1-1.9-8.9-7.2-8.8c-2.2,0-21,0-21,0v30.2H164.3z"/>
			<path class="st0" d="M84.4,0.1v30.1h8.2V5.3h7.2v24.9h8.3V5.3c0,0,2.4,0,3.8,0c1.8,0,3.3,1.7,3.3,3.3c0,1.8,0,21.5,0,21.5h8.3     c0,0,0-18.7,0-21.5c0-4.3-2.3-8.6-7.1-8.6C115.2,0.1,84.4,0.1,84.4,0.1z"/>
			<g>
				<rect x="69.2" y="0.1" class="st0" width="8.8" height="30.1"/>
				<path class="st0" d="M73.6,15.1"/>
			</g>
			<polygon class="st0" points="33.9,0.1 33.9,30.2 42.2,30.2 42.2,23.6 54.4,23.6 54.4,30.2 62.8,30.2 62.8,0.1 54.4,0.1      54.4,17.7 42.2,17.7 42.2,0.1    "/>
			<path class="st0" d="M28.5,0.1c0,0-19,0-20.6,0c-5.1,0-7.1,4-7.4,5c-0.7,2.8-0.7,6.5,0.1,8.7c0.5,1.3,2.5,4.4,7.2,4.4     c1.4,0,9.3,0,10.8,0c1.6,0,2.6,1.1,2.7,3.2c0.1,2-0.7,3.6-2.7,3.6c-1.9,0-17.7,0-17.7,0v5.2c0,0,18.4,0,20.7,0     c5-0.1,6.3-3.2,6.9-4.6c1.3-2.9,1.1-7.1,0-10c-0.3-1-2.2-4.2-7.1-4.2c-1.4,0-9.2,0-10.9,0c-1.6,0-2.4-1.1-2.4-3.1S9,5.2,10.5,5.2     c1.6,0,18,0,18,0V0.1z"/>
		</g>
	</g>
</g>
</svg>